<?xml version="1.0" encoding="iso-8859-1"?>
<!-- Generator: Adobe Illustrator 19.0.0, SVG Export Plug-In . SVG Version: 6.00 Build 0)  -->
<svg version="1.1" id="Capa_1" xmlns="http://www.w3.org/2000/svg" xmlns:xlink="http://www.w3.org/1999/xlink" x="0px" y="0px"
	 viewBox="0 0 512 512" style="enable-background:new 0 0 512 512;" xml:space="preserve">
<g transform="matrix(1.25 0 0 -1.25 0 45)">
	<g>
		<g>
			<path style="fill:#DA2F47;" d="M409.6-168.8c0-113.106-91.694-204.8-204.8-204.8C91.705-373.6,0-281.906,0-168.8
				C0-55.705,91.705,36,204.8,36C317.906,36,409.6-55.705,409.6-168.8"/>
			<g>
				<path style="fill:#292F33;" d="M289.963-303.957c-0.512,2.037-13.289,49.823-85.163,49.823
					c-71.885,0-84.662-47.787-85.163-49.823c-0.626-2.469,0.489-5.029,2.697-6.303c2.219-1.24,4.995-0.899,6.815,0.876
					c0.216,0.216,22.232,21.117,75.651,21.117c53.407,0,75.435-20.901,75.639-21.117c1.092-1.07,2.549-1.638,4.005-1.638
					c0.956,0,1.923,0.239,2.799,0.728C289.473-309.02,290.588-306.437,289.963-303.957"/>
				<path style="fill:#292F33;" d="M178.711-138c-37.035,37.035-96.552,37.467-99.066,37.467c-6.281,0-11.366-5.086-11.366-11.366
					c-0.011-6.269,5.074-11.378,11.355-11.389c0.33,0,21.902-0.25,45.318-8.385c-6.747-7.282-11.173-18.591-11.173-31.437
					c0-22.005,12.732-39.822,28.444-39.822s28.444,17.818,28.444,39.822c0,1.98-0.216,3.868-0.421,5.769
					c0.148,0,0.284-0.08,0.421-0.08c2.913,0,5.825,1.115,8.044,3.334C183.159-149.64,183.159-142.449,178.711-138"/>
				<path style="fill:#292F33;" d="M329.956-100.533c-2.514,0-62.02-0.432-99.066-37.467c-4.449-4.449-4.449-11.639,0-16.088
					c2.219-2.219,5.131-3.334,8.044-3.334c0.148,0,0.273,0.08,0.41,0.08c-0.182-1.9-0.41-3.789-0.41-5.769
					c0-22.005,12.732-39.822,28.444-39.822s28.444,17.818,28.444,39.822c0,12.846-4.426,24.155-11.173,31.437
					c23.415,8.135,44.988,8.385,45.329,8.385c6.269,0.011,11.355,5.12,11.344,11.389
					C341.311-105.619,336.236-100.533,329.956-100.533"/>
				<path style="fill:#292F33;" d="M338.364-339.467H71.236c-14.143,0-25.725,11.571-25.725,25.725v65.297
					c0,14.154,11.583,25.725,25.725,25.725h267.127c14.154,0,25.725-11.571,25.725-25.725v-65.297
					C364.089-327.895,352.518-339.467,338.364-339.467"/>
			</g>
			<g>
				<path style="fill:#FFFFFF;" d="M97.974-286.128h10.274l1.729,12.322H99.703L97.974-286.128z M89.213-273.806h-9.296
					c-3.573,0-5.2,2.605-5.2,5.2c0,2.594,1.627,5.188,5.2,5.188h10.809l2.378,17.408c0.546,3.891,2.162,5.188,5.404,5.188
					c2.594,0,4.983-1.718,4.983-4.324c0-1.616,0-0.865-0.216-2.594l-2.173-15.679h10.388l2.378,17.408
					c0.546,3.891,2.162,5.188,5.416,5.188c2.594,0,4.972-1.718,4.972-4.324c0-1.616,0-0.865-0.216-2.594l-2.162-15.679h9.296
					c3.573,0,5.2-2.594,5.2-5.188c0-2.594-1.627-5.2-5.2-5.2h-10.809l-1.741-12.322h9.307c3.573,0,5.188-2.605,5.188-5.2
					c0-2.594-1.616-5.188-5.188-5.188h-10.809l-2.378-17.408c-0.546-3.903-2.173-5.188-5.416-5.188
					c-2.594,0-4.972,1.718-4.972,4.312c0,1.627,0,0.876,0.216,2.605l2.162,15.679H96.347l-2.378-17.408
					c-0.535-3.903-2.162-5.188-5.404-5.188c-2.594,0-4.983,1.718-4.983,4.312c0,1.627,0,0.876,0.216,2.605l2.173,15.679h-9.307
					c-3.573,0-5.188,2.594-5.188,5.188c0,2.594,1.616,5.2,5.188,5.2h10.82C87.484-286.128,89.213-273.806,89.213-273.806z"/>
				<path style="fill:#FFFFFF;" d="M210.842-302.364c0,3.47-2.059,6.485-5.632,6.485c-3.573,0-5.621-3.015-5.621-6.485
					c0-3.459,2.048-6.383,5.621-6.383C208.782-308.747,210.842-305.823,210.842-302.364 M188.564-302.364
					c0,9.409,7.02,17.522,16.646,17.522c9.637,0,16.668-8.112,16.668-17.522c0-9.398-7.031-17.408-16.668-17.408
					C195.584-319.772,188.564-311.762,188.564-302.364 M199.043-242.972c1.411,2.697,2.492,3.447,4.983,3.447
					c3.345,0,6.372-2.697,6.372-6.053c0-0.865,0-1.616-0.865-3.243l-36.341-68.028c-1.616-2.276-2.264-3.573-4.858-3.573
					c-2.81,0-6.167,2.697-6.167,5.951c0,1.616,0.649,3.129,1.081,3.994C163.248-310.476,199.043-242.972,199.043-242.972z
					 M172.76-257.683c0,3.447-2.048,6.485-5.621,6.485c-3.573,0-5.621-3.038-5.621-6.485c0-3.47,2.048-6.394,5.621-6.394
					C170.712-264.078,172.76-261.153,172.76-257.683 M150.482-257.683c0,9.409,7.031,17.522,16.657,17.522
					s16.657-8.112,16.657-17.522s-7.031-17.419-16.657-17.419S150.482-267.093,150.482-257.683"/>
				<path style="fill:#FFFFFF;" d="M239.73-247.534c0,4.54,3.345,7.35,7.782,7.35c4.324,0,7.782-2.913,7.782-7.35v-41.643
					c0-4.437-3.459-7.361-7.782-7.361c-4.437,0-7.782,2.81-7.782,7.361V-247.534z M239.07-311.352c0,4.654,3.789,8.442,8.442,8.442
					c4.654,0,8.442-3.789,8.442-8.442c0-4.654-3.789-8.442-8.442-8.442C242.859-319.794,239.07-316.006,239.07-311.352"/>
				<path style="fill:#FFFFFF;" d="M300.1-250.049c-3.186,0-7.623-2.605-7.623-6.849c0-3.959,1.946-6.36,6.076-10.57l0.58-0.592
					l0.728,0.364c5.655,2.97,8.511,6.292,8.511,9.899C308.372-252.461,304.094-250.049,300.1-250.049 M292.466-280.894
					c-4.87-3.265-9.83-7.566-9.83-14.689c0-7.464,4.858-12.277,12.39-12.277c6.269,0,10.342,2.753,14.507,6.895l0.808,0.785
					l-17.067,19.831C293.274-280.348,292.466-280.894,292.466-280.894z M331.685-320.42c-2.116,0-3.447,0.603-4.892,2.23
					l-8.238,8.988l-0.819-0.762c-7.987-7.327-14.882-10.456-23.04-10.456c-12.618,0-25.361,7.191-25.361,23.256
					c0,12.595,9.865,20.127,15.747,23.495l1.331,0.774l-1.081,1.115c-4.836,5.063-6.804,9.25-6.804,14.438
					c0,12.242,11.184,17.818,21.572,17.818c8.693,0,20.935-5.143,20.935-16.577c0-10.82-10.047-17.078-13.13-18.739l-1.308-0.705
					l13.21-15.258l5.063,6.098c2.81,3.379,4.437,4.801,7.35,4.801c2.332,0,4.824-2.094,4.824-5.951c0-2.901-2.867-6.656-5.678-9.967
					l-3.379-3.812l8.033-9.523c1.49-1.775,2.105-2.719,2.105-4.87C338.125-317.371,335.053-320.42,331.685-320.42"/>
			</g>
		</g>
	</g>
</g>
<g>
</g>
<g>
</g>
<g>
</g>
<g>
</g>
<g>
</g>
<g>
</g>
<g>
</g>
<g>
</g>
<g>
</g>
<g>
</g>
<g>
</g>
<g>
</g>
<g>
</g>
<g>
</g>
<g>
</g>
</svg>
