<?xml version="1.0" encoding="iso-8859-1"?>
<!-- Generator: Adobe Illustrator 19.0.0, SVG Export Plug-In . SVG Version: 6.00 Build 0)  -->
<svg version="1.1" id="Capa_1" xmlns="http://www.w3.org/2000/svg" xmlns:xlink="http://www.w3.org/1999/xlink" x="0px" y="0px"
	 viewBox="0 0 512 512" style="enable-background:new 0 0 512 512;" xml:space="preserve">
<g transform="matrix(1.25 0 0 -1.25 0 45)">
	<g>
		<g>
			<path style="fill:#FFCC4D;" d="M409.6-168.8c0-113.106-91.694-204.8-204.8-204.8C91.705-373.6,0-281.906,0-168.8
				C0-55.705,91.705,36,204.8,36C317.906,36,409.6-55.705,409.6-168.8"/>
			<path style="fill:#F5F8FA;" d="M353.621-95.675c0-43.327-35.123-78.461-78.461-78.461c-43.327,0-78.461,35.135-78.461,78.461
				s35.135,78.461,78.461,78.461C318.498-17.214,353.621-52.348,353.621-95.675"/>
			<path style="fill:#292F33;" d="M295.64-95.675c0-11.287-9.148-20.434-20.434-20.434c-11.298,0-20.446,9.148-20.446,20.434
				s9.148,20.434,20.446,20.434C286.492-75.241,295.64-84.388,295.64-95.675"/>
			<path style="fill:#F5F8FA;" d="M170.189-118.078c0-24.747-20.059-44.794-44.794-44.794c-24.747,0-44.806,20.048-44.806,44.794
				s20.059,44.794,44.806,44.794C150.13-73.284,170.189-93.331,170.189-118.078"/>
			<path style="fill:#292F33;" d="M147.479-118.078c0-12.197-9.887-22.096-22.096-22.096c-12.197,0-22.084,9.899-22.084,22.096
				s9.887,22.096,22.084,22.096C137.591-95.982,147.479-105.881,147.479-118.078"/>
			<path style="fill:#664500;" d="M204.8-202.933c-41.222,0-68.574,4.801-102.4,11.378c-7.726,1.49-22.756,0-22.756-22.756
				c0-45.511,52.281-102.4,125.156-102.4c72.863,0,125.156,56.889,125.156,102.4c0,22.756-15.03,24.257-22.756,22.756
				C273.374-198.132,246.022-202.933,204.8-202.933"/>
			<path style="fill:#FFFFFF;" d="M102.4-214.311c0,0,34.133-11.378,102.4-11.378s102.4,11.378,102.4,11.378
				s-22.756-45.511-102.4-45.511S102.4-214.311,102.4-214.311"/>
		</g>
	</g>
</g>
<g>
</g>
<g>
</g>
<g>
</g>
<g>
</g>
<g>
</g>
<g>
</g>
<g>
</g>
<g>
</g>
<g>
</g>
<g>
</g>
<g>
</g>
<g>
</g>
<g>
</g>
<g>
</g>
<g>
</g>
</svg>
