<?xml version="1.0" encoding="iso-8859-1"?>
<!-- Generator: Adobe Illustrator 19.0.0, SVG Export Plug-In . SVG Version: 6.00 Build 0)  -->
<svg version="1.1" id="Capa_1" xmlns="http://www.w3.org/2000/svg" xmlns:xlink="http://www.w3.org/1999/xlink" x="0px" y="0px"
	 viewBox="0 0 512 512" style="enable-background:new 0 0 512 512;" xml:space="preserve">
<g transform="matrix(1.25 0 0 -1.25 0 45)">
	<g>
		<g>
			<path style="fill:#FFCC4D;" d="M409.6-168.8c0-113.106-91.694-204.8-204.8-204.8C91.705-373.6,0-281.906,0-168.8
				C0-55.705,91.705,36,204.8,36C317.906,36,409.6-55.705,409.6-168.8"/>
			<g>
				<path style="fill:#664500;" d="M348.16-159.698c-1.297,0.967-21.97,16.225-52.861,26.67c0.307,1.308,0.523,2.651,0.523,4.05
					c0,4.198-1.57,7.999-4.085,10.968c20.514,5.928,37.934,6.098,38.241,6.098c6.269,0.023,11.355,5.12,11.344,11.401
					c-0.011,6.269-5.086,11.355-11.366,11.355c-2.503,0-62.02-0.421-99.066-37.467c-3.254-3.254-4.233-8.146-2.458-12.402
					c1.752-4.244,5.905-7.02,10.502-7.02c52.224,0,95.164-31.539,95.596-31.869c2.048-1.513,4.426-2.253,6.793-2.253
					c3.47,0,6.895,1.582,9.125,4.562C354.202-170.575,353.178-163.464,348.16-159.698"/>
				<path style="fill:#664500;" d="M178.711-126.623c-37.035,37.035-96.552,37.467-99.066,37.467
					c-6.281,0-11.366-5.086-11.366-11.366c-0.011-6.269,5.074-11.378,11.355-11.389c0.296,0,17.727-0.182,38.229-6.098
					c-2.503-2.97-4.085-6.77-4.085-10.968c0-1.399,0.216-2.742,0.535-4.05c-30.902-10.445-51.575-25.702-52.873-26.67
					c-5.029-3.766-6.042-10.9-2.276-15.929c2.23-2.981,5.655-4.551,9.114-4.551c2.367,0,4.767,0.74,6.815,2.276
					c0.421,0.319,43.088,31.858,95.573,31.858c4.597,0,8.75,2.776,10.513,7.02C182.943-134.769,181.965-129.877,178.711-126.623"/>
				<path style="fill:#664500;" d="M182.044-293.956c22.756,56.889,147.911,56.889,147.911,34.133
					C329.956-271.2,238.933-248.444,182.044-293.956"/>
			</g>
			<path style="fill:#CCD6DD;" d="M209.419-169.175c30.47-30.447-45.215-176.629-59.733-191.147
				c-11.947-11.947-47.787-11.947-59.733,11.947c-11.947,23.893-47.787,0-59.733,11.947c-23.893,23.893,11.947,35.84,0,59.733
				c-11.947,23.893-35.84,35.84-11.947,59.733s83.627,11.947,119.467,35.84S197.461-157.229,209.419-169.175"/>
			<path style="fill:#F5F8FA;" d="M197.086-190.076c-0.182,0.705-0.603,1.286-0.899,1.934c-0.341,0.751-0.58,1.536-1.07,2.207
				c-1.832,2.469-4.608,4.255-7.896,4.722h-0.011c-1.559,0.216-3.118,0.125-4.619-0.25c-1.024-0.262-1.923-0.819-2.833-1.331
				c-0.432-0.239-0.922-0.341-1.32-0.637c-1.263-0.933-2.344-2.105-3.163-3.47c-33.382-55.637-113.118-90.385-113.926-90.738
				c-6.053-2.606-8.852-9.626-6.258-15.69c1.946-4.528,6.349-7.236,10.98-7.236c1.57,0,3.174,0.307,4.699,0.967
				c2.549,1.092,46.148,20.15,84.491,53.623c-23.529-43.52-59.506-68.221-60.006-68.551c-5.473-3.675-6.94-11.082-3.277-16.566
				c2.31-3.447,6.087-5.313,9.944-5.313c2.276,0,4.574,0.66,6.61,2.014c3.106,2.071,76.254,51.758,88.815,139.639
				C197.575-193.171,197.473-191.59,197.086-190.076"/>
		</g>
	</g>
</g>
<g>
</g>
<g>
</g>
<g>
</g>
<g>
</g>
<g>
</g>
<g>
</g>
<g>
</g>
<g>
</g>
<g>
</g>
<g>
</g>
<g>
</g>
<g>
</g>
<g>
</g>
<g>
</g>
<g>
</g>
</svg>
