<?xml version="1.0" encoding="iso-8859-1"?>
<!-- Generator: Adobe Illustrator 19.0.0, SVG Export Plug-In . SVG Version: 6.00 Build 0)  -->
<svg version="1.1" id="Capa_1" xmlns="http://www.w3.org/2000/svg" xmlns:xlink="http://www.w3.org/1999/xlink" x="0px" y="0px"
	 viewBox="0 0 512 512" style="enable-background:new 0 0 512 512;" xml:space="preserve">
<g transform="matrix(1.25 0 0 -1.25 0 45)">
	<g>
		<g>
			<path style="fill:#4289C1;" d="M352.711,1.867c0-12.561-10.183-22.756-22.756-22.756c-12.561,0-22.756,10.194-22.756,22.756
				c0,12.572,10.194,22.756,22.756,22.756C342.528,24.622,352.711,14.439,352.711,1.867"/>
			<path id="SVGCleanerId_0" style="fill:#4289C1;" d="M409.6-55.022c0-18.842-15.28-34.133-34.133-34.133
				s-34.133,15.292-34.133,34.133s15.28,34.133,34.133,34.133S409.6-36.181,409.6-55.022"/>
			<g transform="translate(0 4)">
				<path id="SVGCleanerId_0_1_" style="fill:#4289C1;" d="M409.6-9.511c0-18.842-15.28-34.133-34.133-34.133
					s-34.133,15.292-34.133,34.133s15.28,34.133,34.133,34.133S409.6,9.33,409.6-9.511"/>
			</g>
			<path id="SVGCleanerId_1" style="fill:#4289C1;" d="M56.889,1.867c0-12.561,10.194-22.756,22.756-22.756
				S102.4-10.694,102.4,1.867c0,12.572-10.194,22.756-22.756,22.756S56.889,14.439,56.889,1.867"/>
			<path id="SVGCleanerId_2" style="fill:#4289C1;" d="M0-55.022c0-18.842,15.28-34.133,34.133-34.133s34.133,15.292,34.133,34.133
				s-15.28,34.133-34.133,34.133S0-36.181,0-55.022"/>
			<g transform="translate(0 4)">
				<path id="SVGCleanerId_2_1_" style="fill:#4289C1;" d="M0-9.511c0-18.842,15.28-34.133,34.133-34.133
					S68.267-28.353,68.267-9.511s-15.28,34.133-34.133,34.133S0,9.33,0-9.511"/>
			</g>
			<path style="fill:#FEE7B8;" d="M409.6-168.8c0-113.106-91.694-204.8-204.8-204.8S0-281.906,0-168.8S91.694,36,204.8,36
				S409.6-55.694,409.6-168.8"/>
			<g>
				<path style="fill:#4289C1;" d="M375.467-15.2c0-15.713-12.743-28.444-28.444-28.444c-15.701,0-28.444,12.732-28.444,28.444
					s12.743,28.444,28.444,28.444C362.724,13.244,375.467,0.513,375.467-15.2"/>
				<path style="fill:#4289C1;" d="M386.844-43.644c0-12.561-10.194-22.756-22.756-22.756s-22.756,10.194-22.756,22.756
					c0,12.572,10.194,22.756,22.756,22.756S386.844-31.072,386.844-43.644"/>
				<path style="fill:#4289C1;" d="M34.133-15.2c0-15.713,12.743-28.444,28.444-28.444S91.022-30.913,91.022-15.2
					S78.279,13.244,62.578,13.244S34.133,0.513,34.133-15.2"/>
			</g>
			<g transform="translate(-3 -4)">
				<path id="SVGCleanerId_1_1_" style="fill:#4289C1;" d="M22.756-43.644c0-12.561,10.194-22.756,22.756-22.756
					s22.756,10.194,22.756,22.756c0,12.572-10.194,22.756-22.756,22.756S22.756-31.072,22.756-43.644"/>
			</g>
			<path id="SVGCleanerId_3" style="fill:#FF7892;" d="M124.359-202.933c0-25.134-20.378-45.511-45.511-45.511
				s-45.511,20.378-45.511,45.511s20.378,45.511,45.511,45.511S124.359-177.8,124.359-202.933"/>
			<g transform="translate(22)">
				<path id="SVGCleanerId_3_1_" style="fill:#FF7892;" d="M374.67-202.933c0-25.134-20.378-45.511-45.511-45.511
					s-45.511,20.378-45.511,45.511s20.378,45.511,45.511,45.511S374.67-177.8,374.67-202.933"/>
			</g>
			<path style="fill:#DA2F47;" d="M311.012-232.846c-2.025,1.832-5.052,1.946-7.225,0.33c-0.444-0.33-44.624-32.996-98.987-32.996
				c-54.226,0-98.554,32.666-98.987,32.996c-2.173,1.616-5.2,1.479-7.225-0.33c-2.014-1.82-2.469-4.824-1.07-7.145
				c1.468-2.446,36.602-76.72,107.281-76.72s105.825,74.274,107.281,76.72C313.481-237.658,313.037-234.666,311.012-232.846"/>
			<path id="SVGCleanerId_4" style="fill:#664500;" d="M159.289-94.844c0-22.005-12.732-39.822-28.444-39.822
				S102.4-116.849,102.4-94.844c0,21.993,12.732,39.822,28.444,39.822S159.289-72.851,159.289-94.844"/>
			<g transform="translate(14)">
				<path id="SVGCleanerId_4_1_" style="fill:#664500;" d="M318.578-94.844c0-22.005-12.732-39.822-28.444-39.822
					s-28.444,17.818-28.444,39.822c0,21.993,12.732,39.822,28.444,39.822S318.578-72.851,318.578-94.844"/>
			</g>
			<path style="fill:#BB1A34;" d="M250.311-185.867c0-21.993-17.818-39.822-39.822-39.822c-21.993,0-39.822,17.829-39.822,39.822
				s17.829,39.822,39.822,39.822C232.494-146.044,250.311-163.873,250.311-185.867"/>
		</g>
	</g>
</g>
<g>
</g>
<g>
</g>
<g>
</g>
<g>
</g>
<g>
</g>
<g>
</g>
<g>
</g>
<g>
</g>
<g>
</g>
<g>
</g>
<g>
</g>
<g>
</g>
<g>
</g>
<g>
</g>
<g>
</g>
</svg>
