<?xml version="1.0" encoding="iso-8859-1"?>
<!-- Generator: Adobe Illustrator 19.0.0, SVG Export Plug-In . SVG Version: 6.00 Build 0)  -->
<svg version="1.1" id="Capa_1" xmlns="http://www.w3.org/2000/svg" xmlns:xlink="http://www.w3.org/1999/xlink" x="0px" y="0px"
	 viewBox="0 0 512 512" style="enable-background:new 0 0 512 512;" xml:space="preserve">
<g transform="matrix(1.25 0 0 -1.25 0 45)">
	<g>
		<g>
			<path style="fill:#DA2F47;" d="M312.9-202.933c0-25.134-34.133-170.667-102.4-170.667h-91.022
				c-68.267,0-102.4,145.533-102.4,170.667V-9.511C17.078,15.622,37.456,36,62.589,36h204.8C292.523,36,312.9,15.622,312.9-9.511
				V-202.933z"/>
			<path style="fill:#F5F8FA;" d="M158.629-68.346c24.326-26.658,30.891-62.68,14.677-80.452
				c-16.191-17.772-49.061-10.559-73.375,16.088C75.628-106.052,69.04-70.018,85.265-52.257
				C101.467-34.485,134.337-41.687,158.629-68.346"/>
			<path style="fill:#292F33;" d="M175.616-108.566c6.929-8.886,6.929-23.302,0-32.188c-6.895-8.886-18.125-8.886-25.042,0
				c-6.929,8.886-6.929,23.302,0,32.176C157.491-99.68,168.721-99.68,175.616-108.566"/>
			<path style="fill:#F5F8FA;" d="M241.527-69.483c-20.776-26.647-26.374-62.68-12.516-80.452
				c13.824-17.772,41.87-10.559,62.623,16.088c20.753,26.658,26.362,62.68,12.516,80.452
				C290.327-35.623,262.281-42.825,241.527-69.483"/>
			<g>
				<path style="fill:#292F33;" d="M235.304-109.749c-6.929-8.886-6.929-23.29,0-32.176c6.906-8.886,18.159-8.886,25.042,0
					c6.963,8.886,6.963,23.29,0,32.176C253.463-100.863,242.21-100.863,235.304-109.749"/>
				<path style="fill:#292F33;" d="M232.027-89.156c-4.892,0-9.808,1.57-13.961,4.801c-9.921,7.714-11.708,22.016-3.982,31.937
					l53.134,68.267c7.714,9.921,21.993,11.696,31.926,3.971c9.91-7.714,11.708-22.016,3.982-31.937l-53.134-68.267
					C245.51-86.14,238.808-89.156,232.027-89.156"/>
				<path style="fill:#292F33;" d="M178.881-89.156c-6.781,0-13.483,3.015-17.977,8.772l-53.157,68.267
					c-7.726,9.921-5.939,24.212,3.971,31.937c9.921,7.726,24.223,5.951,31.937-3.971l53.168-68.267
					c7.714-9.921,5.939-24.212-3.982-31.937C188.689-87.585,183.763-89.156,178.881-89.156"/>
			</g>
			<path style="fill:#FDD888;" d="M267.389-316.723c-9.216,0-17.874,5.643-21.311,14.78c-1.183,2.947-13.278,30.743-46.956,30.743
				s-45.773-27.796-47.047-30.97c-4.631-11.571-17.783-17.374-29.389-12.891c-11.639,4.517-17.51,17.419-13.141,29.093
				c0.922,2.469,23.37,60.279,89.577,60.279s88.656-57.81,89.577-60.279c4.415-11.765-1.559-24.872-13.323-29.298
				C272.748-316.245,270.04-316.723,267.389-316.723"/>
			<g transform="translate(18.555 14)">
				<path style="fill:#292F33;" d="M186.882-228.311c0,0,50.995,6.292,80.213-45.511c32.074-56.889,32.074,56.889,24.053,68.267
					c-8.01,11.378-16.509-15.77-32.085-10.24C226.966-204.418,186.882-228.311,186.882-228.311"/>
				<path style="fill:#292F33;" d="M186.882-228.311c0,0-66.992,6.292-105.392-45.511c-42.132-56.889-42.132,56.889-31.607,68.267
					c10.547,11.378,21.709-19.627,42.166-14.097C134.203-208.275,186.882-228.311,186.882-228.311"/>
			</g>
			<path style="fill:#E75A70;" d="M361.37-134.667c-1.024,0-1.98-0.228-2.981-0.33v0.33H200.863
				c-17.192,0-31.118-15.28-31.118-34.133s13.926-34.133,31.118-34.133h157.525v0.33c1.001-0.102,1.957-0.33,2.981-0.33
				c17.215,0,31.152,15.28,31.152,34.133C392.522-149.958,378.584-134.667,361.37-134.667"/>
		</g>
	</g>
</g>
<g>
</g>
<g>
</g>
<g>
</g>
<g>
</g>
<g>
</g>
<g>
</g>
<g>
</g>
<g>
</g>
<g>
</g>
<g>
</g>
<g>
</g>
<g>
</g>
<g>
</g>
<g>
</g>
<g>
</g>
</svg>
