<?xml version="1.0" encoding="iso-8859-1"?>
<!-- Generator: Adobe Illustrator 19.0.0, SVG Export Plug-In . SVG Version: 6.00 Build 0)  -->
<svg version="1.1" id="Capa_1" xmlns="http://www.w3.org/2000/svg" xmlns:xlink="http://www.w3.org/1999/xlink" x="0px" y="0px"
	 viewBox="0 0 512.005 512.005" style="enable-background:new 0 0 512.005 512.005;" xml:space="preserve">
<g transform="matrix(1.25 0 0 -1.25 0 45)">
	<g>
		<g>
			<g>
				<path style="fill:#AA8ED6;" d="M409.602-168.804c0-113.106-91.694-204.8-204.8-204.8s-204.8,91.694-204.8,204.8
					s91.694,204.8,204.8,204.8S409.602-55.698,409.602-168.804"/>
				<path style="fill:#AA8ED6;" d="M113.78-9.515c-29.355,0-64.068,28.058-74.934,38.844c-6.497,6.508-16.304,8.465-24.792,4.938
					C5.543,30.739,0.002,22.445,0.002,13.24c0-39.356,19.024-113.778,91.022-113.778c8.613,0,16.498,4.87,20.355,12.572
					l22.756,45.511c3.527,7.066,3.152,15.44-1.001,22.141C128.992-13.6,121.665-9.515,113.78-9.515"/>
				<path style="fill:#AA8ED6;" d="M395.562,34.255c-8.533,3.538-18.284,1.582-24.804-4.938
					c-10.069-10.069-45.477-38.844-74.934-38.844c-7.885,0-15.201-4.085-19.354-10.786c-4.142-6.713-4.517-15.087-1.001-22.141
					l22.756-45.511c3.857-7.703,11.742-12.584,20.355-12.584c72.01,0,91.022,74.422,91.022,113.778
					C409.602,22.433,404.061,30.728,395.562,34.255"/>
			</g>
			<g>
				<path style="fill:#553986;" d="M311.014-255.605c-2.025,1.832-5.052,1.946-7.225,0.33c-0.444-0.33-44.624-32.996-98.987-32.996
					c-54.227,0-98.554,32.666-98.987,32.996c-2.173,1.616-5.2,1.479-7.225-0.33c-2.014-1.82-2.469-4.824-1.07-7.145
					c1.468-2.446,36.602-59.654,107.281-59.654s105.825,57.207,107.281,59.654C313.483-260.418,313.039-257.426,311.014-255.605"/>
				<path style="fill:#553986;" d="M178.713-172.138c-37.035,37.035-96.552,37.467-99.066,37.467
					c-6.281,0-11.366-5.086-11.366-11.366c-0.011-6.269,5.074-11.378,11.355-11.389c0.33,0,21.902-0.25,45.318-8.385
					c-6.747-7.282-11.173-18.591-11.173-31.437c0-22.005,12.732-39.822,28.444-39.822s28.444,17.818,28.444,39.822
					c0,1.98-0.216,3.868-0.421,5.769c0.148,0,0.284-0.08,0.421-0.08c2.913,0,5.825,1.115,8.044,3.334
					C183.162-183.777,183.162-176.587,178.713-172.138"/>
				<path style="fill:#553986;" d="M329.958-134.671c-2.514,0-62.02-0.432-99.066-37.467c-4.449-4.449-4.449-11.639,0-16.088
					c2.219-2.219,5.131-3.334,8.044-3.334c0.148,0,0.273,0.08,0.41,0.08c-0.182-1.9-0.41-3.789-0.41-5.769
					c0-22.005,12.732-39.822,28.444-39.822s28.444,17.818,28.444,39.822c0,12.846-4.426,24.155-11.173,31.437
					c23.415,8.135,44.988,8.385,45.329,8.385c6.269,0.011,11.355,5.12,11.344,11.389
					C341.313-139.757,336.238-134.671,329.958-134.671"/>
			</g>
		</g>
	</g>
</g>
<g>
</g>
<g>
</g>
<g>
</g>
<g>
</g>
<g>
</g>
<g>
</g>
<g>
</g>
<g>
</g>
<g>
</g>
<g>
</g>
<g>
</g>
<g>
</g>
<g>
</g>
<g>
</g>
<g>
</g>
</svg>
