<?xml version="1.0" encoding="iso-8859-1"?>
<!-- Generator: Adobe Illustrator 19.0.0, SVG Export Plug-In . SVG Version: 6.00 Build 0)  -->
<svg version="1.1" id="Capa_1" xmlns="http://www.w3.org/2000/svg" xmlns:xlink="http://www.w3.org/1999/xlink" x="0px" y="0px"
	 viewBox="0 0 512 512" style="enable-background:new 0 0 512 512;" xml:space="preserve">
<g transform="matrix(1.25 0 0 -1.25 0 45)">
	<g>
		<g>
			<path style="fill:#E1E8ED;" d="M409.6-89.156c0,12.572-10.183,22.756-22.756,22.756c-12.561,0-22.756-10.183-22.756-22.756
				c0,0-0.125-37.376-34.133-44.305v32.927c0,69.12-56.036,125.156-125.156,125.156S79.644-31.413,79.644-100.533v-36.83
				C20.23-155.215,0-228.317,0-271.2c0-12.561,10.194-22.756,22.756-22.756s22.756,10.194,22.756,22.756
				c0,0,0.023,40.277,37.956,45.033c5.712-55.08,18.409-113.3,41.688-113.3h11.378c45.511,0,34.133-22.756,79.644-22.756
				s34.133,22.756,68.267,22.756s27.25-22.756,68.267-22.756c18.853,0,34.133,15.28,34.133,34.133
				c0,7.68-25.873,56.821-42.724,105.449C409.384-206.893,409.6-129.888,409.6-89.156"/>
			<g>
				<path style="fill:#292F33;" d="M170.667-100.533c0-12.561-10.183-22.756-22.756-22.756c-12.561,0-22.756,10.194-22.756,22.756
					c0,12.572,10.194,22.756,22.756,22.756C160.484-77.778,170.667-87.961,170.667-100.533"/>
				<path style="fill:#292F33;" d="M307.2-100.533c0-25.134-20.378-45.511-45.511-45.511s-45.511,20.378-45.511,45.511
					s20.378,45.511,45.511,45.511S307.2-75.4,307.2-100.533"/>
			</g>
			<path style="fill:#9AAAB4;" d="M284.444-111.911c0-12.561-10.183-22.756-22.756-22.756c-12.561,0-22.756,10.194-22.756,22.756
				c0,12.572,10.194,22.756,22.756,22.756C274.261-89.156,284.444-99.339,284.444-111.911"/>
			<path style="fill:#292F33;" d="M252.473-185.764c30.151-22.608,40.858-59.29,23.893-81.909c-16.976-22.63-55.171-22.63-85.333,0
				c-30.162,22.608-40.858,59.29-23.893,81.909C184.104-163.134,222.31-163.145,252.473-185.764"/>
		</g>
	</g>
</g>
<g>
</g>
<g>
</g>
<g>
</g>
<g>
</g>
<g>
</g>
<g>
</g>
<g>
</g>
<g>
</g>
<g>
</g>
<g>
</g>
<g>
</g>
<g>
</g>
<g>
</g>
<g>
</g>
<g>
</g>
</svg>
