<?xml version="1.0" encoding="iso-8859-1"?>
<!-- Generator: Adobe Illustrator 19.0.0, SVG Export Plug-In . SVG Version: 6.00 Build 0)  -->
<svg version="1.1" id="Capa_1" xmlns="http://www.w3.org/2000/svg" xmlns:xlink="http://www.w3.org/1999/xlink" x="0px" y="0px"
	 viewBox="0 0 506.313 506.313" style="enable-background:new 0 0 506.313 506.313;" xml:space="preserve">
<g transform="matrix(1.25 0 0 -1.25 0 45)">
	<g>
		<g>
			<path style="fill:#292F33;" d="M404.815-313.64c0,0-12.493-21.39-32.7-21.39H221.588c-41.358,0-49.96,47.559-86.528,120.661
				c-36.545,73.125-78.564,34.679-78.564,34.679L42.672-346.408H28.063c0,0-6.997,142.814-14.222,166.07
				C-2.6-127.431,6.73-87.245,6.73-87.245l91.238-6.178l114.904-176.629L404.815-313.64z"/>
			<path style="fill:#DD2E44;" d="M347.949-249.663L347.949-249.663c-12.937,3.527-21.322,7.111-21.322,7.111
				c-5.837-6.076-14.006-7.111-21.333-7.111c-43.52,0-66.071,17.704-92.41,78.199C156.017-40.846,62.424,13.357,35.174,13.357
				c-29.036,0-45.102-135.066-28.444-135.066c52.417,0,95.744-10.559,126.521-42.655c45.989-47.98,62.726-149.276,92.342-149.276
				h179.223C404.815-313.64,411.926-267.435,347.949-249.663"/>
		</g>
	</g>
</g>
<g>
</g>
<g>
</g>
<g>
</g>
<g>
</g>
<g>
</g>
<g>
</g>
<g>
</g>
<g>
</g>
<g>
</g>
<g>
</g>
<g>
</g>
<g>
</g>
<g>
</g>
<g>
</g>
<g>
</g>
</svg>
