<?xml version="1.0" encoding="iso-8859-1"?>
<!-- Generator: Adobe Illustrator 19.0.0, SVG Export Plug-In . SVG Version: 6.00 Build 0)  -->
<svg version="1.1" id="Capa_1" xmlns="http://www.w3.org/2000/svg" xmlns:xlink="http://www.w3.org/1999/xlink" x="0px" y="0px"
	 viewBox="0 0 495.289 495.289" style="enable-background:new 0 0 495.289 495.289;" xml:space="preserve">
<g transform="matrix(1.25 0 0 -1.25 0 45)">
	<g>
		<g>
			<path style="fill:#E75A70;" d="M362.886-37.712c-25.293,4.096-86.107,45.09-129.832,31.425s-40.311-24.599-62.168-31.437
				c-21.868-6.838-25.281,4.096-69.018-9.569c-43.713-13.665-70.36-81.988-88.804-99.76c0,0-18.239-18.432-11.617-39.629
				C8.07-207.855,30.154-201.7,30.154-201.7c76.516,23.916,102.48,56.036,102.48,56.036s39.617-11.617,72.408-1.365
				c32.802,10.24,58.755,42.359,58.755,42.359s39.64-11.617,116.156,12.299c0,0,21.641,7.521,15.019,28.706
				C388.349-42.479,362.886-37.712,362.886-37.712"/>
			<path style="fill:#E75A70;" d="M350.598-113.556c-65.582-20.491-51.905-64.216-128.432-88.144
				c-76.527-23.905-90.192,19.809-155.773-0.683c-21.857-6.849-29.377-21.185-25.964-32.131
				c10.251-32.779,95.653-114.074,215.905-76.493c120.24,37.581,144.156,153.054,133.894,185.833
				C386.825-114.239,372.455-106.718,350.598-113.556"/>
		</g>
	</g>
</g>
<g>
</g>
<g>
</g>
<g>
</g>
<g>
</g>
<g>
</g>
<g>
</g>
<g>
</g>
<g>
</g>
<g>
</g>
<g>
</g>
<g>
</g>
<g>
</g>
<g>
</g>
<g>
</g>
<g>
</g>
</svg>
