<?xml version="1.0" encoding="iso-8859-1"?>
<!-- Generator: Adobe Illustrator 19.0.0, SVG Export Plug-In . SVG Version: 6.00 Build 0)  -->
<svg version="1.1" id="Capa_1" xmlns="http://www.w3.org/2000/svg" xmlns:xlink="http://www.w3.org/1999/xlink" x="0px" y="0px"
	 viewBox="0 0 508.7 508.7" style="enable-background:new 0 0 508.7 508.7;" xml:space="preserve">
<g transform="matrix(1.25 0 0 -1.25 0 45)">
	<g>
		<g>
			<path style="fill:#EA596E;" d="M175.286,36c25.554,0,54.966-15.644,76.265-36.966c21.311-21.322,42.951-44.681,42.951-68.244
				v-195.743l-181.749-0.353v194.935C111.696-53.247,124.985,36,175.286,36"/>
			<path style="fill:#DD2E44;" d="M203.48-90.817v-189.121c0-12.572,10.194,0,22.756,0v-22.756
				c12.572,0,22.756,10.183,22.756,22.756v178.244C234.678-100.499,218.84-98.702,203.48-90.817"/>
			<path style="fill:#F4ABBA;" d="M238.41-0.671c30.31-27.204,48.663-59.574,33.69-76.22
				c-14.962-16.657-57.572-11.275-87.848,15.929c-30.276,27.193-42.701,62.748-27.75,79.394
				C171.475,35.09,208.134,26.534,238.41-0.671"/>
			<path style="fill:#FFCC4D;" d="M328.636-348.205c0-12.572-10.183-22.756-22.756-22.756h-204.8
				c-12.561,0-22.756,10.183-22.756,22.756v68.267c0,12.572,10.194,22.756,22.756,22.756h204.8
				c12.572,0,22.756-10.183,22.756-22.756V-348.205z"/>
			<path style="fill:#FFAC33;" d="M340.014-348.205c0-12.572-10.183-22.756-22.756-22.756H89.702
				c-12.561,0-22.756,10.183-22.756,22.756v11.378c0,12.572,10.194,22.756,22.756,22.756h227.556
				c12.572,0,22.756-10.183,22.756-22.756V-348.205z"/>
		</g>
	</g>
</g>
<g>
</g>
<g>
</g>
<g>
</g>
<g>
</g>
<g>
</g>
<g>
</g>
<g>
</g>
<g>
</g>
<g>
</g>
<g>
</g>
<g>
</g>
<g>
</g>
<g>
</g>
<g>
</g>
<g>
</g>
</svg>
