<?xml version="1.0" encoding="iso-8859-1"?>
<!-- Generator: Adobe Illustrator 19.0.0, SVG Export Plug-In . SVG Version: 6.00 Build 0)  -->
<svg version="1.1" id="Layer_1" xmlns="http://www.w3.org/2000/svg" xmlns:xlink="http://www.w3.org/1999/xlink" x="0px" y="0px"
	 viewBox="0 0 473.931 473.931" style="enable-background:new 0 0 473.931 473.931;" xml:space="preserve">
<circle style="fill:#FFC10E;" cx="236.966" cy="236.966" r="236.966"/>
<g>
	<path style="fill:#333333;" d="M106.883,85.989c25.141,18.817,50.282,37.638,75.423,56.456c9.669,7.237,18.978-9.018,9.44-16.153
		c-25.141-18.817-50.282-37.638-75.423-56.456C106.659,62.596,97.346,78.85,106.883,85.989L106.883,85.989z"/>
	<path style="fill:#333333;" d="M356.298,69.832c-25.141,18.817-50.282,37.638-75.423,56.456c-9.538,7.139-0.228,23.39,9.44,16.153
		c25.141-18.817,50.282-37.638,75.423-56.456C375.276,78.85,365.967,62.596,356.298,69.832L356.298,69.832z"/>
	<circle style="fill:#333333;" cx="164.937" cy="155.231" r="37.216"/>
	<circle style="fill:#333333;" cx="305.664" cy="155.231" r="37.216"/>
</g>
<path style="fill:#FFFFFF;" d="M392.514,377.719c0-85.911-69.645-155.56-155.56-155.56s-155.56,69.649-155.56,155.56H392.514z"/>
<g>
	<path style="fill:#CCCBCB;" d="M306.177,377.719c0-46.435,0-92.87,0-139.306c-6.02-3.001-12.269-5.609-18.709-7.82
		c0,49.043,0,98.087,0,147.126L306.177,377.719L306.177,377.719z"/>
	<path style="fill:#CCCBCB;" d="M190.59,377.719c0-49.507,0-99.018,0-148.529c-6.432,2.006-12.666,4.453-18.709,7.244
		c0,47.098,0,94.191,0,141.289h18.709V377.719z"/>
</g>
<g>
</g>
<g>
</g>
<g>
</g>
<g>
</g>
<g>
</g>
<g>
</g>
<g>
</g>
<g>
</g>
<g>
</g>
<g>
</g>
<g>
</g>
<g>
</g>
<g>
</g>
<g>
</g>
<g>
</g>
</svg>
