<svg height="512pt" viewBox="0 -40 512.00064 512" width="512pt" xmlns="http://www.w3.org/2000/svg"><path d="m497.488281 255.789062c-12.121093-45.234374-46.332031-78.648437-87.914062-91.757812-67.160157 21.011719-106.367188 91.46875-87.984375 160.070312 12.121094 45.238282 46.332031 78.652344 87.914062 91.761719 67.15625-21.011719 106.363282-91.46875 87.984375-160.074219zm0 0" fill="#ffc66c"/><path d="m269.445312 255.789062c-12.722656-47.484374-49.785156-81.945312-94.171874-93.5625-.316407.085938-.636719.160157-.957032.246094-70.402344 18.863282-112.183594 91.226563-93.316406 161.628906 12.722656 47.488282 49.785156 81.945313 94.167969 93.5625.320312-.082031.640625-.15625.960937-.242187 70.402344-18.863281 112.183594-91.230469 93.316406-161.632813zm0 0" fill="#feda9b"/><path d="m335.847656 172.476562c-4.40625 0-8.441406-2.9375-9.644531-7.394531-1.441406-5.332031 1.710937-10.824219 7.042969-12.261719l.40625-.109374c5.34375-1.398438 10.808594 1.800781 12.203125 7.148437 1.398437 5.339844-1.804688 10.804687-7.144531 12.199219l-.246094.066406c-.871094.238281-1.75.351562-2.617188.351562zm0 0"/><path d="m403.214844 268.476562c-4.753906 0-9.445313-1.246093-13.675782-3.6875-6.347656-3.664062-10.886718-9.582031-12.785156-16.660156-1.429687-5.335937 1.738282-10.816406 7.074219-12.246094 5.332031-1.433593 10.816406 1.734376 12.246094 7.070313.515625 1.917969 1.746093 3.523437 3.46875 4.515625 1.71875.996094 3.726562 1.257812 5.640625.742188 1.921875-.511719 3.527344-1.742188 4.519531-3.464844.996094-1.722656 1.257813-3.726563.742187-5.644532-1.429687-5.335937 1.738282-10.816406 7.074219-12.246093 5.332031-1.433594 10.816407 1.734375 12.246094 7.070312 1.898437 7.078125.921875 14.472657-2.742187 20.820313-3.664063 6.347656-9.582032 10.886718-16.660157 12.785156-2.367187.632812-4.765625.945312-7.148437.945312zm0 0"/><path d="m316.714844 291.65625c-4.753906 0-9.445313-1.25-13.675782-3.6875-6.347656-3.664062-10.886718-9.582031-12.785156-16.664062-1.429687-5.332032 1.738282-10.816407 7.074219-12.246094 5.332031-1.433594 10.816406 1.734375 12.246094 7.070312.515625 1.917969 1.746093 3.523438 3.46875 4.515625 1.71875.996094 3.722656 1.257813 5.644531.742188 1.917969-.511719 3.523438-1.742188 4.515625-3.464844.996094-1.722656 1.257813-3.726563.742187-5.644531-1.429687-5.335938 1.738282-10.816406 7.074219-12.246094 5.332031-1.433594 10.816407 1.734375 12.246094 7.070312 1.898437 7.078126.921875 14.472657-2.742187 20.820313-3.664063 6.347656-9.582032 10.886719-16.660157 12.785156-2.367187.636719-4.765625.949219-7.148437.949219zm0 0"/><path d="m376.941406 357.175781c-7.125 0-14.152344-1.867187-20.488281-5.527343-9.507813-5.488282-16.308594-14.351563-19.148437-24.957032-1.429688-5.335937 1.734374-10.820312 7.070312-12.25 5.335938-1.429687 10.816406 1.738282 12.246094 7.074219 1.460937 5.441406 4.953125 9.996094 9.835937 12.8125 4.878907 2.816406 10.566407 3.566406 16.011719 2.109375 11.242188-3.011719 17.9375-14.609375 14.925781-25.851562-1.429687-5.332032 1.734375-10.816407 7.070313-12.246094 5.332031-1.433594 10.816406 1.738281 12.246094 7.070312 5.867187 21.894532-7.171876 44.480469-29.066407 50.34375-3.539062.953125-7.132812 1.421875-10.703125 1.421875zm0 0"/><path d="m507.148438 253.203125c-15.851563-59.15625-67.546876-101.355469-128.640626-105.011719-5.523437-.320312-10.25 3.875-10.578124 9.386719-.328126 5.515625 3.871093 10.25 9.386718 10.582031 52.480469 3.136719 96.894532 39.394532 110.511719 90.21875 17.40625 64.964844-21.285156 131.976563-86.246094 149.382813-10.386719 2.785156-20.914062 4.125-31.332031 4.125-40.820312 0-80.011719-20.585938-102.710938-55.722657 10.464844-19.777343 16.40625-42.296874 16.40625-66.183593s-5.9375-46.40625-16.402343-66.179688c9.570312-14.824219 22.375-27.550781 37.195312-36.929687 4.664063-2.953125 6.054688-9.132813 3.101563-13.800782-2.953125-4.664062-9.132813-6.054687-13.796875-3.101562-14.695313 9.300781-27.683594 21.421875-38.09375 35.460938-25.898438-34.820313-67.34375-57.421876-113.976563-57.421876-78.285156 0-141.972656 63.6875-141.972656 141.972657 0 78.285156 63.6875 141.972656 141.972656 141.972656 46.644532 0 88.105469-22.613281 114-57.453125 15.257813 20.503906 36.078125 36.839844 59.835938 46.671875 17.386718 7.195313 35.628906 10.816406 54.003906 10.816406 12.328125 0 24.71875-1.628906 36.945312-4.90625 75.613282-20.261719 120.652344-98.265625 100.390626-173.878906zm-365.175782 158.746094c-67.257812 0-121.972656-54.714844-121.972656-121.96875 0-67.253907 54.714844-121.972657 121.972656-121.972657 67.253906 0 121.96875 54.71875 121.96875 121.972657 0 67.253906-54.714844 121.96875-121.96875 121.96875zm0 0"/><path d="m114.636719 278.769531c-5.523438 0-10.003907-4.476562-10.003907-10 0-4.101562-3.335937-7.4375-7.4375-7.4375-4.101562 0-7.4375 3.335938-7.4375 7.4375 0 5.523438-4.476562 10-10 10-5.523437 0-10-4.476562-10-10 0-15.128906 12.308594-27.4375 27.4375-27.4375 15.128907 0 27.441407 12.308594 27.441407 27.4375 0 5.523438-4.480469 10-10 10zm0 0"/><path d="m204.1875 278.769531c-5.523438 0-10-4.476562-10-10 0-4.101562-3.335938-7.4375-7.4375-7.4375s-7.4375 3.335938-7.4375 7.4375c0 5.523438-4.480469 10-10 10-5.523438 0-10.003906-4.476562-10.003906-10 0-15.128906 12.3125-27.4375 27.441406-27.4375s27.4375 12.308594 27.4375 27.4375c0 5.523438-4.476562 10-10 10zm0 0"/><path d="m141.972656 358.109375c-22.667968 0-41.105468-18.4375-41.105468-41.105469 0-5.519531 4.476562-10 10-10 5.523437 0 10 4.480469 10 10 0 11.640625 9.46875 21.105469 21.105468 21.105469 11.636719 0 21.105469-9.46875 21.105469-21.105469 0-5.519531 4.476563-10 10-10s10 4.480469 10 10c0 22.667969-18.441406 41.105469-41.105469 41.105469zm0 0"/><path d="m256.164062 67.742188c-5.523437 0-10-4.480469-10-10v-47.742188c0-5.523438 4.476563-10 10-10 5.523438 0 10 4.476562 10 10v47.742188c0 5.523437-4.476562 10-10 10zm0 0"/><path d="m256.160156 109.972656c-2.632812 0-5.203125-1.070312-7.070312-2.929687-1.863282-1.859375-2.921875-4.4375-2.921875-7.070313 0-2.628906 1.058593-5.210937 2.921875-7.070312 1.867187-1.859375 4.4375-2.929688 7.070312-2.929688 2.636719 0 5.207032 1.070313 7.070313 2.929688 1.867187 1.859375 2.929687 4.441406 2.929687 7.070312 0 2.632813-1.0625 5.210938-2.929687 7.070313-1.863281 1.859375-4.433594 2.929687-7.070313 2.929687zm0 0"/><path d="m204.574219 92.640625c-2.558594 0-5.117188-.976563-7.070313-2.929687l-33.152344-33.152344c-3.902343-3.902344-3.902343-10.234375 0-14.140625 3.90625-3.90625 10.238282-3.90625 14.144532 0l33.152344 33.152343c3.902343 3.902344 3.902343 10.234376 0 14.140626-1.953126 1.953124-4.511719 2.929687-7.074219 2.929687zm0 0"/><path d="m308.363281 91.761719c-2.558593 0-5.113281-.976563-7.066406-2.925781-3.910156-3.90625-3.910156-10.234376-.007813-14.144532l32.230469-32.25c3.90625-3.902344 10.238281-3.90625 14.144531-.003906 3.90625 3.90625 3.90625 10.238281.003907 14.144531l-32.230469 32.25c-1.953125 1.953125-4.511719 2.929688-7.074219 2.929688zm0 0"/></svg>