<?xml version="1.0" encoding="iso-8859-1"?>
<!-- Generator: Adobe Illustrator 19.0.0, SVG Export Plug-In . SVG Version: 6.00 Build 0)  -->
<svg version="1.1" id="Capa_1" xmlns="http://www.w3.org/2000/svg" xmlns:xlink="http://www.w3.org/1999/xlink" x="0px" y="0px"
	 viewBox="0 0 512 512" style="enable-background:new 0 0 512 512;" xml:space="preserve">
<path id="SVGCleanerId_0" style="fill:#FFCC4D;" d="M512,256c0,141.4-114.6,256-256,256S0,397.4,0,256S114.6,0,256,0
	S512,114.6,512,256"/>
<g>
	<path id="SVGCleanerId_1" style="fill:#664500;" d="M388.8,336.1c-2.5-2.3-6.3-2.4-9-0.4c-0.6,0.4-55.8,41.2-123.7,41.2
		c-67.8,0-123.2-40.8-123.7-41.2c-2.7-2-6.5-1.8-9,0.4c-2.5,2.3-3.1,6-1.3,8.9c1.8,3.1,45.8,74.6,134.1,74.6S388.3,348,390.1,345
		C391.9,342.1,391.3,338.3,388.8,336.1"/>
</g>
<g>
	<path id="SVGCleanerId_0_1_" style="fill:#FFCC4D;" d="M512,256c0,141.4-114.6,256-256,256S0,397.4,0,256S114.6,0,256,0
		S512,114.6,512,256"/>
</g>
<g>
	<path id="SVGCleanerId_1_1_" style="fill:#664500;" d="M388.8,336.1c-2.5-2.3-6.3-2.4-9-0.4c-0.6,0.4-55.8,41.2-123.7,41.2
		c-67.8,0-123.2-40.8-123.7-41.2c-2.7-2-6.5-1.8-9,0.4c-2.5,2.3-3.1,6-1.3,8.9c1.8,3.1,45.8,74.6,134.1,74.6S388.3,348,390.1,345
		C391.9,342.1,391.3,338.3,388.8,336.1"/>
</g>
<g>
	<path id="SVGCleanerId_1_2_" style="fill:#664500;" d="M388.8,336.1c-2.5-2.3-6.3-2.4-9-0.4c-0.6,0.4-55.8,41.2-123.7,41.2
		c-67.8,0-123.2-40.8-123.7-41.2c-2.7-2-6.5-1.8-9,0.4c-2.5,2.3-3.1,6-1.3,8.9c1.8,3.1,45.8,74.6,134.1,74.6S388.3,348,390.1,345
		C391.9,342.1,391.3,338.3,388.8,336.1"/>
</g>
<path style="fill:#65471B;" d="M256,378.2c-2.1,0-4.1-0.2-6.2-0.2v64.2h12.4V378C260.1,378,258.1,378.2,256,378.2"/>
<g>
	<path style="fill:#FFFFFF;" d="M312.9,369.8c0.2-0.1-20.6,5.4-34.8,6.9c-5.2,0.6-10.5,1.1-15.9,1.3v64.2h22.2
		c15.6,0,28.4-12.8,28.4-28.4v-17.9l0,0L312.9,369.8z"/>
	<path style="fill:#FFFFFF;" d="M199.1,369.8c-0.2-0.1,20.6,5.4,34.8,6.9c5.2,0.6,10.5,1.1,15.9,1.3v64.2h-22.2
		c-15.6,0-28.4-12.8-28.4-28.4v-17.9l0,0L199.1,369.8z"/>
</g>
<g>
	<path style="fill:#65471B;" d="M388.8,336.1c-2.5-2.3-6.3-2.4-9-0.4c-0.4,0.3-32.1,23.7-77,35.1c-6.3,1.6-26.5,6.1-46.7,6.1
		c-20.3,0-40.5-4.5-46.8-6.1c-44.8-11.4-76.5-34.8-77-35.1c-2.7-2-6.5-1.9-9,0.4s-3.1,6-1.3,8.9c1.4,2.3,26.8,43.6,77.2,63.7v-26
		c-0.2-0.1,20.6,5.4,34.8,6.9c5.2,0.6,10.5,1.1,15.9,1.3l0,0c2.1,0.1,4.1,0.2,6.2,0.2c2.1,0,4.1-0.2,6.2-0.2l0,0
		c5.4-0.2,10.7-0.7,15.9-1.3c14.2-1.5,35-7,34.8-6.9v26c50.4-20.1,75.8-61.4,77.2-63.7C391.9,342.1,391.3,338.3,388.8,336.1"/>
	<path style="fill:#65471B;" d="M378.7,199.5c0,24.4-13.3,44.1-29.8,44.1s-29.8-19.8-29.8-44.1s13.3-44.1,29.8-44.1
		C365.3,155.3,378.7,175.1,378.7,199.5"/>
</g>
<path style="fill:#292F33;" d="M439.3,185.2c-1.7,13.6-6.2,50-18,58.8c-9.4,7-33.6,12-51,12l0,0c-15.7,0-30.8-4-42.3-10.6
	c-18.8-10.7-21.6-40.7-22.7-56.4c-0.6-8.6-2.5-26.3,11.8-35.1c16.1-9.9,49.2-10.6,59.1-10.6c21.5,0,42.6,3.9,57.6,9.1
	C443.3,155.6,440.4,176.6,439.3,185.2 M207.9,188.8c-1.1,15.7-3.9,45.9-22.7,56.6c-11.6,6.6-26.6,10.6-42.4,10.6l0,0
	c-17.4,0-41.6-4.9-51-12c-11.8-8.8-16.3-45-18-58.6c-1.1-8.6-4-29.7,5.5-33c15.1-5.1,36.1-9.1,57.6-9.1c9.9,0,43,0.6,59.1,10.5
	C210.3,162.6,208.4,180.2,207.9,188.8 M495.1,136.9c-2.4-2.4-18,3.9-33.8-4.1c-32.5-16.6-114.8-32.6-168.3,5.3
	c-5.7,4.1-29.7,4.8-36.4,4.5c-6.7,0.3-30.6-0.4-36.4-4.5c-53.5-37.9-135.8-21.9-168.3-5.3c-15.8,8-31.4,1.8-33.8,4.1
	c-3.5,3.4-3.5,17,0,20.4s21,7.3,24.5,17.5s3.5,70.5,31.5,91.3c26.1,19.5,87.2,25.4,125.8,3.4c33.7-19.2,32.6-59.6,38.7-83.6
	c2.2-8.6,8.4-12.9,17.9-12.9s15.7,4.3,17.9,12.9c6.2,24,5,64.4,38.7,83.6c38.7,22,99.7,16.1,125.8-3.4c27.9-20.8,28-81.1,31.5-91.3
	c3.5-10.2,21-14.1,24.5-17.5C498.6,153.9,498.6,140.3,495.1,136.9"/>
<path style="fill:#65471B;" d="M134.5,199.5c0,24.4,13.3,44.1,29.8,44.1s29.8-19.8,29.8-44.1s-13.3-44.1-29.8-44.1
	C147.8,155.3,134.5,175.1,134.5,199.5"/>
<g>
</g>
<g>
</g>
<g>
</g>
<g>
</g>
<g>
</g>
<g>
</g>
<g>
</g>
<g>
</g>
<g>
</g>
<g>
</g>
<g>
</g>
<g>
</g>
<g>
</g>
<g>
</g>
<g>
</g>
</svg>
