<?xml version="1.0" encoding="iso-8859-1"?>
<!-- Generator: Adobe Illustrator 19.0.0, SVG Export Plug-In . SVG Version: 6.00 Build 0)  -->
<svg version="1.1" id="Capa_1" xmlns="http://www.w3.org/2000/svg" xmlns:xlink="http://www.w3.org/1999/xlink" x="0px" y="0px"
	 viewBox="0 0 497.778 497.778" style="enable-background:new 0 0 497.778 497.778;" xml:space="preserve">
<g transform="matrix(1.25 0 0 -1.25 0 45)">
	<g>
		<g>
			<path style="fill:#FFCC4D;" d="M392.533-157.422c0-106.826-86.596-193.422-193.422-193.422
				c-106.815,0-193.422,86.596-193.422,193.422C5.689-50.608,92.297,36,199.111,36C305.937,36,392.533-50.608,392.533-157.422"/>
			<path style="fill:#664500;" d="M164.978-122.037c0-22.005-12.732-39.822-28.444-39.822s-28.444,17.818-28.444,39.822
				c0,21.993,12.732,39.822,28.444,39.822S164.978-100.044,164.978-122.037"/>
			<path style="fill:#F5F8FA;" d="M347.022-117.6c0-40.846-33.109-73.956-73.956-73.956s-73.956,33.109-73.956,73.956
				s33.109,73.956,73.956,73.956S347.022-76.754,347.022-117.6"/>
			<path style="fill:#67757F;" d="M273.067-55.022c-34.497,0-62.578-28.069-62.578-62.578s28.08-62.578,62.578-62.578
				s62.578,28.069,62.578,62.578S307.564-55.022,273.067-55.022 M273.067-202.933c-47.059,0-85.333,38.275-85.333,85.333
				s38.275,85.333,85.333,85.333S358.4-70.542,358.4-117.6S320.125-202.933,273.067-202.933"/>
			<path style="fill:#664500;" d="M164.978-70.871c-3.459,0-6.872,1.57-9.114,4.551c-10.638,14.188-21.788,21.8-33.121,22.608
				C107.804-42.7,95.63-53.896,93.366-56.16c-4.449-4.449-11.639-4.449-16.088,0s-4.449,11.639,0,16.088
				c4.904,4.904,22.881,20.799,47.07,19.046c18.216-1.286,34.941-11.935,49.721-31.642c3.766-5.029,2.753-12.163-2.276-15.929
				C169.745-70.132,167.344-70.871,164.978-70.871"/>
			<path style="fill:#292F33;" d="M358.4-362.222c-6.292,0-11.378,5.086-11.378,11.378v227.556c0,6.281,5.086,11.378,11.378,11.378
				c6.292,0,11.378-5.097,11.378-11.378v-227.556C369.778-357.136,364.692-362.222,358.4-362.222"/>
			<path style="fill:#67757F;" d="M381.156-123.289c0-12.572-10.183-22.756-22.756-22.756c-12.572,0-22.756,10.183-22.756,22.756
				s10.183,22.756,22.756,22.756C370.972-100.533,381.156-110.716,381.156-123.289"/>
			<path style="fill:#664500;" d="M233.233-271.2c-1.707,0-3.447,0.387-5.074,1.195c-19.547,9.785-38.548,9.785-58.095,0
				c-5.621-2.799-12.459-0.523-15.269,5.097c-2.81,5.621-0.523,12.447,5.097,15.269c26.01,12.993,52.406,12.993,78.438,0
				c5.621-2.822,7.908-9.648,5.097-15.269C241.425-268.902,237.409-271.2,233.233-271.2"/>
			<g>
				<path style="fill:#BDDDF4;" d="M307.098-65.148c-9.796,6.372-21.47,10.103-34.031,10.103c-34.554,0-62.578-28.012-62.578-62.578
					c0-12.561,3.743-24.223,10.103-34.031L307.098-65.148z"/>
				<path style="fill:#BDDDF4;" d="M246.329-174.125c8.112-3.834,17.135-6.053,26.704-6.053c34.566,0,62.578,28.023,62.578,62.578
					c0,9.569-2.207,18.603-6.053,26.704L246.329-174.125z"/>
			</g>
		</g>
	</g>
</g>
<g>
</g>
<g>
</g>
<g>
</g>
<g>
</g>
<g>
</g>
<g>
</g>
<g>
</g>
<g>
</g>
<g>
</g>
<g>
</g>
<g>
</g>
<g>
</g>
<g>
</g>
<g>
</g>
<g>
</g>
</svg>
