<?xml version="1.0" encoding="iso-8859-1"?>
<!-- Generator: Adobe Illustrator 19.0.0, SVG Export Plug-In . SVG Version: 6.00 Build 0)  -->
<svg version="1.1" id="Capa_1" xmlns="http://www.w3.org/2000/svg" xmlns:xlink="http://www.w3.org/1999/xlink" x="0px" y="0px"
	 viewBox="0 0 512 512" style="enable-background:new 0 0 512 512;" xml:space="preserve">
<g transform="matrix(1.25 0 0 -1.25 0 45)">
	<g>
		<g>
			<path style="fill:#FFCC4D;" d="M204.8,36C91.705,36,0-55.705,0-168.8c0-68.847,34.088-129.616,86.175-166.741
				c1.183,73.25-25.452,155.364-70.201,155.364c-5.279,0-9.557-0.751-13.119-2.082c3.447,8.613,10.923,13.449,24.906,13.449
				c48.583,0,75.844-96.779,69.325-173.932C128.41-362.188,165.228-373.6,204.8-373.6c39.583,0,76.413,11.423,107.748,30.868
				C305.983-265.284,333.232-168.8,381.85-168.8c14.029,0,21.515-4.847,24.94-13.46c-3.573,1.331-7.862,2.082-13.164,2.082
				c-44.806,0-71.441-81.909-70.201-155.364C375.524-298.416,409.6-237.647,409.6-168.8C409.6-55.705,317.906,36,204.8,36"/>
			<path style="fill:#BDDDF4;" d="M204.8,36C91.705,36,0-55.705,0-168.8c0-13.562,1.399-26.806,3.914-39.64
				c2.662,9.819,6.827,19.24,12.038,28.262c-5.268,0-9.535-0.751-13.096-2.082c3.004,7.509,9.364,11.924,20.127,12.993
				C57.025-121.719,125.577-89.156,204.8-89.156c79.235,0,147.775-32.552,181.817-80.1c10.82-1.07,17.18-5.484,20.173-13.005
				c-3.561,1.331-7.839,2.082-13.13,2.082c5.211-9.023,9.364-18.443,12.026-28.262c2.526,12.834,3.914,26.078,3.914,39.64
				C409.6-55.705,317.906,36,204.8,36"/>
			<g>
				<path style="fill:#F5F8FA;" d="M83.593-99.509c-10.763-36.136,1.217-71.6,26.772-79.212c25.554-7.623,55,15.497,65.752,51.632
					c10.763,36.124-1.217,71.6-26.749,79.212C123.813-40.265,94.367-63.385,83.593-99.509"/>
				<path style="fill:#F5F8FA;" d="M325.996-99.509c10.763-36.136-1.217-71.6-26.761-79.212c-25.566-7.623-55,15.497-65.764,51.632
					c-10.763,36.124,1.217,71.6,26.749,79.212C285.776-40.265,315.221-63.385,325.996-99.509"/>
			</g>
			<path style="fill:#664500;" d="M204.8-168.8c-31.369,0-56.889-25.52-56.889-56.889v-68.267c0-31.369,25.52-56.889,56.889-56.889
				s56.889,25.52,56.889,56.889v68.267C261.689-194.32,236.169-168.8,204.8-168.8"/>
			<g>
				<path style="fill:#FCAB40;" d="M15.974-180.178c-5.279,0-9.557-0.751-13.119-2.082c0.819,2.037,1.9,3.823,3.197,5.427
					C-15.132-202.911,32.404-288.722,9.307-373.6h73.512C96.336-294.411,68.756-180.178,15.974-180.178"/>
				<path style="fill:#FCAB40;" d="M406.79-182.26c-3.561,1.32-7.851,2.082-13.164,2.082c-52.804,0-80.395-113.801-66.822-193.422
					h73.5C378.618-293.444,419.146-213.31,406.79-182.26"/>
			</g>
		</g>
	</g>
</g>
<g>
</g>
<g>
</g>
<g>
</g>
<g>
</g>
<g>
</g>
<g>
</g>
<g>
</g>
<g>
</g>
<g>
</g>
<g>
</g>
<g>
</g>
<g>
</g>
<g>
</g>
<g>
</g>
<g>
</g>
</svg>
